<svg xmlns="http://www.w3.org/2000/svg" viewBox="0 0 32 32"><path fill="#f0f0f0" d="m26.84 6.58-5.43 20.26-6.25-6.25 1.16-3.5L26.84 6.58zM25.42 5.16 14.91 15.68l-3.5 1.16-6.25-6.25 20.26-5.43z"/><path fill="#577695" d="M14.91 15.68 25.42 5.16 5.16 10.59l6.25 6.25Zm6.5 11.16 5.43-20.26-10.52 10.51-1.16 3.5Zm8.3-23.94a1.13 1.13 0 0 1 .06.32 1 1 0 0 1 0 .24L22.89 29a1 1 0 0 1-.71.71 1.07 1.07 0 0 1-.25 0 1 1 0 0 1-.71-.29l-7.91-7.91a1 1 0 0 1-.24-1l.8-2.41-2.42.8a1 1 0 0 1-1-.24l-7.93-7.88a1 1 0 0 1-.26-1A1 1 0 0 1 3 9.11l25.51-6.85a1.07 1.07 0 0 1 .59 0h.09a.8.8 0 0 1 .27.18 1 1 0 0 1 .18.27Z"/></svg>